<?xml version="1.0" encoding="UTF-8"?>
<svg id="Capa_4" data-name="Capa 4" xmlns="http://www.w3.org/2000/svg" viewBox="0 0 250.67 41.45">
  <defs>
    <style>
      .cls-1 {
        fill-rule: evenodd;
      }

      .cls-1, .cls-2 {
        fill: #22408e;
        stroke-width: 0px;
      }
    </style>
  </defs>
  <rect class="cls-2" x="178.16" y="13.87" width="9.66" height="27.59"/>
  <path class="cls-1" d="m199.66,13.87h11.43c3.35,0,6.1,2.95,6.1,6.54v13.85c0,3.6-2.76,6.54-6.1,6.54h-11.43c-3.37,0-6.1-2.95-6.1-6.54v-13.85c0-3.6,2.74-6.54,6.1-6.54h0Zm10.31,8.04v10.67c0,5.85-8.88,5.51-8.88,0v-10.67c0-5.68,8.88-5.83,8.88,0h0Z"/>
  <polygon class="cls-1" points="222.91 40.8 222.91 13.82 227.9 13.82 245.7 26.85 245.7 13.82 250.67 13.82 250.67 40.8 245.7 40.8 227.9 26.85 227.9 40.8 222.91 40.8"/>
  <path class="cls-1" d="m93.36,40.78c4.63.08,7.39.19,11.74.11,5.05-.13,11.59-2.04,11.74-7.13V13.91h-7.72v19.21c-.36,2.67-1.7,3.83-4.38,4.14-.86.08-2.5,0-3.56-.06V13.91h-7.95v19.27c-.02,3.91-2.65,4.06-7.72,4.02V13.91h-7.72v26.89h14.24l1.24-1.03.08,1.01Z"/>
  <path class="cls-1" d="m172.43,21.02h-5.55c-.06-3.49-3.35-2.42-4.69-2.52-.57-.04-.99.17-1.3.48-.29.34-.44.82-.46,1.49,0,.86.15,1.52.46,1.94,2.74,3.83,10.58,4.38,11.45,11.38.38,3.14-.97,6.35-3.85,6.78-2.42.36-10.27.42-12.58.04-1.87-.29-2.78-1.62-3.32-2.67-.82-1.6-.97-2.27-.93-4.1h5.53v.46c-.02.97.06,1.62.34,1.85.78.63,3.96.42,4.59.42s1.09-.17,1.41-.53c.32-.36.63-.88.48-1.56-.55-2.67-3.54-3.51-5.07-4.59-2.17-1.51-4.06-2.61-4.82-3.11-.76-.48-1.39-1.18-1.87-2.06-.48-.88-.72-2-.69-3.37.02-1.96.4-3.41,1.14-4.31.72-.9,2.02-2.46,3.64-2.84,2.23-.53,9.68-.48,12.22.06,1.77.38,2.57,1.98,3.11,2.84.32.51.72,2.48.78,3.91h0Z"/>
  <path class="cls-1" d="m129.97,26.7h8.27v-6.69c-2.46-2.34-5.34-2.67-8.27-.19v6.88Zm8.27,3.24h-8.27v10.88h-7.41v-21.88c1.07-2.04,3.05-4.44,6-5.03h10.56c3.16.11,5.39,2.5,6.69,5.03v21.88h-7.58v-10.88Z"/>
  <polygon class="cls-1" points="55.91 41.39 69.16 14.48 61.61 0 57.65 0 39.03 37.81 34.3 37.81 45.79 14.48 38.25 0 34.57 0 17.51 34.65 5.7 11.95 8.42 6.44 17.4 23.74 20.56 17.34 11.53 0 7.15 0 0 14.48 13.97 41.39 20.58 41.39 37.77 6.44 40.65 11.95 26.15 41.39 43.7 41.39 60.91 6.44 63.8 11.95 49.26 41.39 55.91 41.39"/>
</svg>